# xmcd
#
# Track frame offsets:
#	150
#	16631
#	33471
#	49775
#	66976
#	83731
#	102767
#	117582
#	133504
#	152851
#
# Disc length: 2199 seconds
# Revision: 0
# Processed by: cddbd v1.5.2PL0 Copyright (c) Steve Scherf et al.
# Submitted via: dBpowerAMP V12.0
#
DISCID=7c08950a
DTITLE=Vicky Emerson - Wake Me When The Wind Dies Down
DYEAR=2016
DGENRE=Folk-Rock
TTITLE0=Under My Skin
TTITLE1=Rattle Shake
TTITLE2=Long Gone
TTITLE3=Sihouette
TTITLE4=Runaway Train
TTITLE5=Save All My Cryin'
TTITLE6=Lyndale
TTITLE7=Dance Me into the Night
TTITLE8=September Midnight
TTITLE9=Follow The Moon
EXTD=
EXTT0=
EXTT1=
EXTT2=
EXTT3=
EXTT4=
EXTT5=
EXTT6=
EXTT7=
EXTT8=
EXTT9=
PLAYORDER=
